# xmcd CD database file generated by OrangeCD 5.0
#
# Track frame offsets:
#	150
#	18912
#	34725
#	46105
#	66167
#	79490
#	100092
#	127117
#	149425
#	161085
#	180297
#	203775
#	218780
#	233215
#
# Disc length: 3496 seconds
#
# Revision: 0
# Processed by: cddbd v1.4PL0 Copyright (c) Steve Scherf et al.
# Submitted via: OrangeCD 5.0
#
DISCID=c00da60e
DTITLE=Randy's Boogie Squad - Blue Fever
DYEAR=1998
DGENRE=Blues
TTITLE0=Fifty-five
TTITLE1=New Orleans Mystical Jive
TTITLE2=Watch That Wave Gretchen
TTITLE3=She's No Good
TTITLE4=Better Watch Out
TTITLE5=Feeling Guilty
TTITLE6=Ain't Goin'home
TTITLE7=Cure For Pain
TTITLE8=Don't Kiss The Frog
TTITLE9=Why Me
TTITLE10=Mine All Mine
TTITLE11=The Right Track
TTITLE12=La Armoricadél Viento
TTITLE13=Baby Baby Baby
EXTD=
EXTT0=
EXTT1=
EXTT2=
EXTT3=
EXTT4=
EXTT5=
EXTT6=
EXTT7=
EXTT8=
EXTT9=
EXTT10=
EXTT11=
EXTT12=
EXTT13=
PLAYORDER=
